<?xml version="1.0" encoding="utf-8"?>
<!-- Generator: Adobe Illustrator 16.0.0, SVG Export Plug-In . SVG Version: 6.00 Build 0)  -->
<!DOCTYPE svg PUBLIC "-//W3C//DTD SVG 1.1//EN" "http://www.w3.org/Graphics/SVG/1.1/DTD/svg11.dtd">
<svg version="1.1" id="Layer_1" xmlns="http://www.w3.org/2000/svg" xmlns:xlink="http://www.w3.org/1999/xlink" x="0px" y="0px"
	 width="27px" height="27px" viewBox="0 0 27 27" enable-background="new 0 0 27 27" xml:space="preserve">
<g>
	<g>
		<g>
			<path fill="#010101" d="M16.837,27c-0.265,0-0.506-0.154-0.619-0.394l-5.093-10.821L0.526,10.913
				c-0.251-0.116-0.408-0.371-0.397-0.646c0.009-0.277,0.185-0.52,0.444-0.617L25.79,0.234c0.251-0.093,0.531-0.034,0.722,0.154
				c0.189,0.188,0.254,0.469,0.163,0.719l-9.193,25.439c-0.095,0.261-0.336,0.438-0.613,0.451C16.858,26.999,16.848,27,16.837,27z
				 M2.595,10.356l9.33,4.289c0.146,0.067,0.265,0.185,0.334,0.331l4.497,9.555l8.129-22.496L2.595,10.356z"/>
			<path fill="#010101" d="M11.638,15.95c-0.175,0-0.35-0.066-0.484-0.2c-0.267-0.267-0.267-0.701,0-0.968L25.545,0.392
				c0.269-0.268,0.702-0.268,0.969,0c0.268,0.267,0.268,0.701,0,0.968L12.123,15.75C11.989,15.884,11.814,15.95,11.638,15.95z"/>
		</g>
	</g>
</g>
</svg>
