<svg width="118" height="34" viewBox="0 0 118 34" xmlns="http://www.w3.org/2000/svg"><title>Sided Logo / Black Logotype Copy</title><path d="M113.313 28.724h.514c.525 0 .753-.203.753-.656 0-.441-.217-.634-.696-.634h-.571v1.29zm.753-1.957c.48 0 .766.056 1.017.203.388.215.593.577.593 1.019 0 .475-.25.837-.719 1.052.492.204.628.487.651 1.414.023.306.057.52.114.657h-1.05c-.057-.102-.08-.26-.103-.566-.045-.95-.194-1.143-.833-1.188h-.423v1.754h-1.108v-4.345h1.861zm-3.277 2.218c0 1.72 1.393 3.134 3.084 3.134 1.701 0 3.083-1.403 3.083-3.134 0-1.72-1.382-3.146-3.038-3.146-1.747 0-3.13 1.38-3.13 3.146zm7.035 0c0 2.16-1.77 3.926-3.94 3.926-2.181 0-3.963-1.765-3.963-3.926 0-2.207 1.77-3.938 4.009-3.938 2.135 0 3.894 1.788 3.894 3.938zm-96.458 3.234h7.16v-21.61h-7.16v21.61zM28.76 4.355c0 2.146-1.649 3.734-3.815 3.734-2.215 0-3.816-1.588-3.816-3.781S22.73.527 24.993.527c2.214 0 3.768 1.588 3.768 3.828zm9.047 17.316c0 3.266 2.308 5.788 5.323 5.788 2.92 0 5.182-2.522 5.182-5.788 0-3.454-2.213-6.021-5.182-6.021-3.061 0-5.323 2.567-5.323 6.021zM48.312 1.087h7.16V32.22h-7.16v-2.427c-.99 1.354-1.555 1.867-2.544 2.334-1.272.606-2.778.933-4.521.933-6.643 0-11.07-4.527-11.07-11.388 0-3.734 1.177-6.675 3.58-8.87 2.166-1.912 4.898-3.032 7.63-3.032 2.827 0 4.852.84 6.925 2.8V1.087zM73.33 19.15c-.472-2.24-2.169-3.5-4.712-3.5-2.45 0-4.098 1.26-4.57 3.5h9.281zm-9.234 3.781c.518 2.427 2.403 3.874 4.993 3.874 1.932 0 3.534-.84 4.287-2.38l6.595 1.68c-1.084 2.147-1.884 3.127-3.533 4.387-2.214 1.727-4.663 2.567-7.49 2.567-7.113 0-12.248-4.9-12.248-11.762 0-6.861 4.805-11.528 11.871-11.528 7.207 0 12.06 4.9 12.06 12.275v.887H64.095zm24.875-1.26c0 3.266 2.308 5.788 5.323 5.788 2.921 0 5.182-2.522 5.182-5.788 0-3.454-2.214-6.021-5.182-6.021-3.062 0-5.323 2.567-5.323 6.021zM99.476 1.087h7.16V32.22h-7.16v-2.427c-.989 1.354-1.554 1.867-2.543 2.334-1.272.606-2.78.933-4.523.933-6.642 0-11.07-4.527-11.07-11.388 0-3.734 1.177-6.675 3.58-8.87 2.166-1.912 4.898-3.032 7.632-3.032 2.826 0 4.85.84 6.924 2.8V1.087zm-87.16 15.918v-.42c0-.98-1.08-1.727-2.93-1.727-1.654 0-2.412.607-2.412 1.447 0 1.05 1.351 1.745 3.189 2.26 6.124 1.726 9.22 3.389 9.22 7.17 0 4.388-4.391 7.328-9.715 7.328S.141 30.31 0 25.781h6.784c.283 1.587.948 2.194 2.884 2.194 1.567 0 2.364-.653 2.364-1.54 0-1.093-2.28-1.837-5.2-2.77C2.072 22.17 0 20.32 0 16.911 0 12.617 4.39 9.77 9.668 9.77c5.182 0 9.244 2.707 9.291 7.235h-6.643z" fill="#FBFBFB" fill-rule="evenodd"/></svg>